<svg version="1.1" xmlns="http://www.w3.org/2000/svg" xmlns:xlink="http://www.w3.org/1999/xlink" width="1605" height="368" viewBox="0 0 1605 368">
	<defs>
		<linearGradient id="gradient" gradientUnits="userSpaceOnUse" x1="22.928%" y1="0.000%" x2="0.000%" y2="100.000%" >
			<stop offset="0%" stop-color="#000000" />
			<stop offset="100%" stop-color="#FFFFFF" />
		</linearGradient>

		<mask id="mask">
		  <rect width="100%" height="100%" fill="black"/>
		  <g>
			<path d="M104.694,77.630 C104.694,77.630 175.796,6.528 175.796,6.528 C180.327,1.997 187.674,1.997 192.205,6.528 C192.205,6.528 263.307,77.630 263.307,77.630 C267.838,82.161 267.838,89.507 263.307,94.038 C263.307,94.038 192.205,165.140 192.205,165.140 C187.674,169.671 180.327,169.671 175.796,165.140 C175.796,165.140 104.694,94.038 104.694,94.038 C100.163,89.507 100.163,82.161 104.694,77.630 z" stroke="#ffffff" stroke-width="6" />
			<path d="M200.142,175.515 C200.142,175.515 273.681,101.976 273.681,101.976 C278.368,97.289 285.966,97.289 290.652,101.976 C290.652,101.976 364.191,175.515 364.191,175.515 C368.877,180.201 368.877,187.799 364.191,192.485 C364.191,192.485 290.652,266.024 290.652,266.024 C285.966,270.711 278.368,270.711 273.681,266.024 C273.681,266.024 200.142,192.485 200.142,192.485 C195.456,187.799 195.456,180.201 200.142,175.515 z" fill="#ffffff" />
			<path d="M104.694,273.963 C104.694,273.963 175.796,202.861 175.796,202.861 C180.327,198.330 187.674,198.330 192.205,202.861 C192.205,202.861 263.307,273.963 263.307,273.963 C267.838,278.494 267.838,285.840 263.307,290.371 C263.307,290.371 192.205,361.473 192.205,361.473 C187.674,366.004 180.327,366.004 175.796,361.473 C175.796,361.473 104.694,290.371 104.694,290.371 C100.163,285.840 100.163,278.494 104.694,273.963 z" fill="none" stroke="#ffffff" stroke-width="6" />
			<path d="M3.809,175.515 C3.809,175.515 77.348,101.976 77.348,101.976 C82.034,97.289 89.632,97.289 94.319,101.976 C94.319,101.976 167.858,175.515 167.858,175.515 C172.544,180.201 172.544,187.799 167.858,192.485 C167.858,192.485 94.319,266.024 94.319,266.024 C89.632,270.711 82.034,270.711 77.348,266.024 C77.348,266.024 3.809,192.485 3.809,192.485 C-0.877,187.799 -0.877,180.201 3.809,175.515 z" fill="#ffffff" />
		  </g>
		</mask>
	</defs>
	
	<style>
		#overlay {
			fill: url(#gradient);
			fill-opacity: 0.75;
			mix-blend-mode: overlay;
			mask: url(#mask);
		}
	</style>
	
	<path id="top" d="M104.694,77.630 C104.694,77.630 175.796,6.528 175.796,6.528 C180.327,1.997 187.674,1.997 192.205,6.528 C192.205,6.528 263.307,77.630 263.307,77.630 C267.838,82.161 267.838,89.507 263.307,94.038 C263.307,94.038 192.205,165.140 192.205,165.140 C187.674,169.671 180.327,169.671 175.796,165.140 C175.796,165.140 104.694,94.038 104.694,94.038 C100.163,89.507 100.163,82.161 104.694,77.630 z" fill="none" stroke="#0085FF" stroke-width="6" />
	<path id="right" d="M200.142,175.515 C200.142,175.515 273.681,101.976 273.681,101.976 C278.368,97.289 285.966,97.289 290.652,101.976 C290.652,101.976 364.191,175.515 364.191,175.515 C368.877,180.201 368.877,187.799 364.191,192.485 C364.191,192.485 290.652,266.024 290.652,266.024 C285.966,270.711 278.368,270.711 273.681,266.024 C273.681,266.024 200.142,192.485 200.142,192.485 C195.456,187.799 195.456,180.201 200.142,175.515 z" fill="#0085FF" />
	<path id="bottom" d="M104.694,273.963 C104.694,273.963 175.796,202.861 175.796,202.861 C180.327,198.330 187.674,198.330 192.205,202.861 C192.205,202.861 263.307,273.963 263.307,273.963 C267.838,278.494 267.838,285.840 263.307,290.371 C263.307,290.371 192.205,361.473 192.205,361.473 C187.674,366.004 180.327,366.004 175.796,361.473 C175.796,361.473 104.694,290.371 104.694,290.371 C100.163,285.840 100.163,278.494 104.694,273.963 z" fill="none" stroke="#FFB900" stroke-width="6" />
	<path id="left" d="M3.809,175.515 C3.809,175.515 77.348,101.976 77.348,101.976 C82.034,97.289 89.632,97.289 94.319,101.976 C94.319,101.976 167.858,175.515 167.858,175.515 C172.544,180.201 172.544,187.799 167.858,192.485 C167.858,192.485 94.319,266.024 94.319,266.024 C89.632,270.711 82.034,270.711 77.348,266.024 C77.348,266.024 3.809,192.485 3.809,192.485 C-0.877,187.799 -0.877,180.201 3.809,175.515 z" fill="#FFB900" />
	<path id="overlay" d="M368.000,368.000 L-0.000,368.000 L-0.000,0.000 L368.000,0.000 L368.000,368.000 z" />
	<path id="text" d="M1562.190,164.779 C1547.294,164.779 1540.238,170.169 1540.238,177.715 C1540.238,201.000 1604.918,180.302 1604.918,225.364 C1604.918,246.925 1586.886,260.939 1557.486,260.939 C1540.042,260.939 1522.599,255.333 1513.191,248.003 C1513.191,248.003 1522.599,227.520 1522.599,227.520 C1531.810,234.204 1545.923,238.947 1559.054,238.947 C1574.538,238.947 1581.006,234.204 1581.006,226.226 C1581.006,204.235 1516.327,224.933 1516.327,179.009 C1516.327,157.232 1534.163,143.002 1562.386,143.002 C1576.302,143.002 1592.178,146.668 1601.586,152.920 C1601.586,152.920 1592.178,173.403 1592.178,173.403 C1582.182,166.935 1572.186,164.779 1562.190,164.779 zM1499.274,119.717 C1489.082,119.717 1483.790,125.969 1483.790,138.259 C1483.790,138.259 1483.790,145.158 1483.790,145.158 L1512.602,145.158 L1512.602,166.719 L1484.574,166.719 L1484.574,259.430 L1460.075,259.430 L1460.075,166.719 L1444.198,166.719 L1442.827,166.719 L1416.170,166.719 L1416.170,259.430 L1391.671,259.430 L1391.671,166.719 L1374.423,166.719 L1374.423,145.158 L1391.671,145.158 C1391.671,145.158 1391.671,137.828 1391.671,137.828 C1391.671,113.680 1404.803,97.940 1429.106,97.940 C1437.534,97.940 1445.766,99.881 1451.254,104.193 C1451.254,104.193 1444.394,124.460 1444.394,124.460 C1440.670,121.657 1435.966,119.717 1430.870,119.717 C1420.678,119.717 1415.386,125.969 1415.386,138.259 C1415.386,138.259 1415.386,145.158 1415.386,145.158 L1442.827,145.158 L1444.198,145.158 L1460.075,145.158 C1460.075,145.158 1460.075,137.828 1460.075,137.828 C1460.075,113.680 1473.207,97.940 1497.510,97.940 C1505.938,97.940 1514.170,99.881 1519.658,104.193 C1519.658,104.193 1512.798,124.460 1512.798,124.460 C1509.074,121.657 1504.370,119.717 1499.274,119.717 zM1347.963,125.322 C1338.947,125.322 1332.283,118.207 1332.283,109.152 C1332.283,100.097 1338.947,92.982 1347.963,92.982 C1356.979,92.982 1363.642,99.665 1363.642,108.505 C1363.642,117.992 1357.174,125.322 1347.963,125.322 zM1239.966,259.430 C1239.966,259.430 1179.991,259.430 1179.991,259.430 L1179.991,108.505 C1179.991,108.505 1239.966,108.505 1239.966,108.505 C1284.458,108.505 1314.838,138.690 1314.838,183.968 C1314.838,229.245 1284.458,259.430 1239.966,259.430 zM1238.790,132.222 C1238.790,132.222 1205.470,132.222 1205.470,132.222 L1205.470,235.713 C1205.470,235.713 1238.790,235.713 1238.790,235.713 C1269.366,235.713 1289.162,215.231 1289.162,183.968 C1289.162,152.705 1269.366,132.222 1238.790,132.222 zM1087.674,260.939 C1064.743,260.939 1051.611,247.571 1051.611,222.130 C1051.611,222.130 1051.611,166.719 1051.611,166.719 L1034.363,166.719 L1034.363,145.158 L1051.611,145.158 L1051.611,118.854 L1076.111,118.854 L1076.111,145.158 L1104.138,145.158 L1104.138,166.719 L1076.111,166.719 C1076.111,166.719 1076.111,221.483 1076.111,221.483 C1076.111,232.695 1081.206,238.732 1090.614,238.732 C1095.710,238.732 1100.610,237.222 1104.334,233.988 C1104.334,233.988 1111.194,253.177 1111.194,253.177 C1105.314,258.352 1096.494,260.939 1087.674,260.939 zM996.534,196.904 C996.534,176.421 987.322,166.503 971.642,166.503 C954.198,166.503 942.439,178.146 942.439,201.216 C942.439,201.216 942.439,259.430 942.439,259.430 L917.939,259.430 L917.939,144.296 L941.262,144.296 C941.262,144.296 941.262,159.173 941.262,159.173 C949.298,148.608 962.038,143.002 977.326,143.002 C1002.414,143.002 1021.034,158.742 1021.034,193.454 C1021.034,193.454 1021.034,259.430 1021.034,259.430 L996.534,259.430 C996.534,259.430 996.534,196.904 996.534,196.904 zM867.370,245.415 C861.490,255.333 850.122,260.939 834.442,260.939 C810.531,260.939 795.439,246.493 795.439,226.442 C795.439,207.253 807.199,192.161 838.950,192.161 C838.950,192.161 865.998,192.161 865.998,192.161 C865.998,192.161 865.998,190.436 865.998,190.436 C865.998,174.696 857.374,165.425 839.930,165.425 C828.170,165.425 816.019,169.737 808.179,176.852 C808.179,176.852 798.575,157.232 798.575,157.232 C809.747,147.746 826.014,143.002 842.870,143.002 C873.054,143.002 890.498,158.742 890.498,191.945 C890.498,191.945 890.498,259.430 890.498,259.430 L867.370,259.430 C867.370,259.430 867.370,245.415 867.370,245.415 zM865.998,210.056 C865.998,210.056 840.714,210.056 840.714,210.056 C824.055,210.056 819.546,216.955 819.546,225.364 C819.546,235.066 826.994,241.319 839.538,241.319 C851.494,241.319 861.882,235.282 865.998,223.424 C865.998,223.424 865.998,210.056 865.998,210.056 zM763.098,260.939 C740.166,260.939 727.035,247.571 727.035,222.130 C727.035,222.130 727.035,166.719 727.035,166.719 L709.787,166.719 L709.787,145.158 L727.035,145.158 L727.035,118.854 L751.534,118.854 L751.534,145.158 L779.562,145.158 L779.562,166.719 L751.534,166.719 C751.534,166.719 751.534,221.483 751.534,221.483 C751.534,232.695 756.630,238.732 766.038,238.732 C771.134,238.732 776.034,237.222 779.758,233.988 C779.758,233.988 786.618,253.177 786.618,253.177 C780.738,258.352 771.918,260.939 763.098,260.939 zM659.022,260.939 C641.579,260.939 624.135,255.333 614.727,248.003 C614.727,248.003 624.135,227.520 624.135,227.520 C633.347,234.204 647.459,238.947 660.590,238.947 C676.074,238.947 682.542,234.204 682.542,226.226 C682.542,204.235 617.863,224.933 617.863,179.009 C617.863,157.232 635.699,143.002 663.922,143.002 C677.838,143.002 693.714,146.668 703.122,152.920 C703.122,152.920 693.714,173.403 693.714,173.403 C683.718,166.935 673.722,164.779 663.726,164.779 C648.831,164.779 641.775,170.169 641.775,177.715 C641.775,201.000 706.454,180.302 706.454,225.364 C706.454,246.925 688.422,260.939 659.022,260.939 zM574.938,196.904 C574.938,176.421 565.726,166.503 550.046,166.503 C532.602,166.503 520.842,178.146 520.842,201.216 C520.842,201.216 520.842,259.430 520.842,259.430 L496.343,259.430 L496.343,144.296 L519.667,144.296 C519.667,144.296 519.667,159.173 519.667,159.173 C527.702,148.608 540.442,143.002 555.730,143.002 C580.818,143.002 599.438,158.742 599.438,193.454 C599.438,193.454 599.438,259.430 599.438,259.430 L574.938,259.430 C574.938,259.430 574.938,196.904 574.938,196.904 zM440.091,108.505 L465.570,108.505 L465.570,259.430 L440.091,259.430 L440.091,108.505 zM1360.114,259.430 L1335.615,259.430 L1335.615,144.296 L1360.114,144.296 L1360.114,259.430 z" fill="#000000" />
</svg>
