<svg version="1.1" xmlns="http://www.w3.org/2000/svg" xmlns:xlink="http://www.w3.org/1999/xlink" width="1581" height="368" viewBox="0 0 1581 368">
	<defs>
		<linearGradient id="gradient" gradientUnits="userSpaceOnUse" x1="23.276%" y1="0.000%" x2="0.000%" y2="100.000%" >
			<stop offset="0%" stop-color="#000000" />
			<stop offset="100%" stop-color="#FFFFFF" />
		</linearGradient>

		<mask id="mask">
		  <rect width="100%" height="100%" fill="black"/>
		  <g>
			<path d="M104.694,77.630 C104.694,77.630 175.796,6.528 175.796,6.528 C180.327,1.997 187.674,1.997 192.205,6.528 C192.205,6.528 263.307,77.630 263.307,77.630 C267.838,82.161 267.838,89.507 263.307,94.038 C263.307,94.038 192.205,165.140 192.205,165.140 C187.674,169.671 180.327,169.671 175.796,165.140 C175.796,165.140 104.694,94.038 104.694,94.038 C100.163,89.507 100.163,82.161 104.694,77.630 z" stroke="#ffffff" stroke-width="6" />
			<path d="M200.142,175.515 C200.142,175.515 273.681,101.976 273.681,101.976 C278.368,97.289 285.966,97.289 290.652,101.976 C290.652,101.976 364.191,175.515 364.191,175.515 C368.877,180.201 368.877,187.799 364.191,192.485 C364.191,192.485 290.652,266.024 290.652,266.024 C285.966,270.711 278.368,270.711 273.681,266.024 C273.681,266.024 200.142,192.485 200.142,192.485 C195.456,187.799 195.456,180.201 200.142,175.515 z" fill="#ffffff" />
			<path d="M104.694,273.963 C104.694,273.963 175.796,202.861 175.796,202.861 C180.327,198.330 187.674,198.330 192.205,202.861 C192.205,202.861 263.307,273.963 263.307,273.963 C267.838,278.494 267.838,285.840 263.307,290.371 C263.307,290.371 192.205,361.473 192.205,361.473 C187.674,366.004 180.327,366.004 175.796,361.473 C175.796,361.473 104.694,290.371 104.694,290.371 C100.163,285.840 100.163,278.494 104.694,273.963 z" fill="none" stroke="#ffffff" stroke-width="6" />
			<path d="M3.809,175.515 C3.809,175.515 77.348,101.976 77.348,101.976 C82.034,97.289 89.632,97.289 94.319,101.976 C94.319,101.976 167.858,175.515 167.858,175.515 C172.544,180.201 172.544,187.799 167.858,192.485 C167.858,192.485 94.319,266.024 94.319,266.024 C89.632,270.711 82.034,270.711 77.348,266.024 C77.348,266.024 3.809,192.485 3.809,192.485 C-0.877,187.799 -0.877,180.201 3.809,175.515 z" fill="#ffffff" />
		  </g>
		</mask>
	</defs>
	
	<style>
		#overlay {
			fill: url(#gradient);
			fill-opacity: 0.75;
			mix-blend-mode: overlay;
			mask: url(#mask);
		}
	</style>
	
	<path id="top" d="M104.694,77.630 C104.694,77.630 175.796,6.528 175.796,6.528 C180.327,1.997 187.674,1.997 192.205,6.528 C192.205,6.528 263.307,77.630 263.307,77.630 C267.838,82.161 267.838,89.507 263.307,94.038 C263.307,94.038 192.205,165.140 192.205,165.140 C187.674,169.671 180.327,169.671 175.796,165.140 C175.796,165.140 104.694,94.038 104.694,94.038 C100.163,89.507 100.163,82.161 104.694,77.630 z" fill="none" stroke="#0085FF" stroke-width="6" />
	<path id="right" d="M200.142,175.515 C200.142,175.515 273.681,101.976 273.681,101.976 C278.368,97.289 285.966,97.289 290.652,101.976 C290.652,101.976 364.191,175.515 364.191,175.515 C368.877,180.201 368.877,187.799 364.191,192.485 C364.191,192.485 290.652,266.024 290.652,266.024 C285.966,270.711 278.368,270.711 273.681,266.024 C273.681,266.024 200.142,192.485 200.142,192.485 C195.456,187.799 195.456,180.201 200.142,175.515 z" fill="#0085FF" />
	<path id="bottom" d="M104.694,273.963 C104.694,273.963 175.796,202.861 175.796,202.861 C180.327,198.330 187.674,198.330 192.205,202.861 C192.205,202.861 263.307,273.963 263.307,273.963 C267.838,278.494 267.838,285.840 263.307,290.371 C263.307,290.371 192.205,361.473 192.205,361.473 C187.674,366.004 180.327,366.004 175.796,361.473 C175.796,361.473 104.694,290.371 104.694,290.371 C100.163,285.840 100.163,278.494 104.694,273.963 z" fill="none" stroke="#FFB900" stroke-width="6" />
	<path id="left" d="M3.809,175.515 C3.809,175.515 77.348,101.976 77.348,101.976 C82.034,97.289 89.632,97.289 94.319,101.976 C94.319,101.976 167.858,175.515 167.858,175.515 C172.544,180.201 172.544,187.799 167.858,192.485 C167.858,192.485 94.319,266.024 94.319,266.024 C89.632,270.711 82.034,270.711 77.348,266.024 C77.348,266.024 3.809,192.485 3.809,192.485 C-0.877,187.799 -0.877,180.201 3.809,175.515 z" fill="#FFB900" />
	<path id="overlay" d="M368.000,368.000 L-0.000,368.000 L-0.000,0.000 L368.000,0.000 L368.000,368.000 z" />
	<path id="text" d="M1538.190,164.779 C1523.294,164.779 1516.238,170.169 1516.238,177.715 C1516.238,201.000 1580.918,180.302 1580.918,225.364 C1580.918,246.925 1562.886,260.939 1533.486,260.939 C1516.043,260.939 1498.599,255.333 1489.191,248.003 C1489.191,248.003 1498.599,227.520 1498.599,227.520 C1507.810,234.204 1521.923,238.947 1535.054,238.947 C1550.538,238.947 1557.006,234.204 1557.006,226.226 C1557.006,204.235 1492.327,224.933 1492.327,179.009 C1492.327,157.232 1510.163,143.002 1538.386,143.002 C1552.302,143.002 1568.178,146.668 1577.586,152.920 C1577.586,152.920 1568.178,173.403 1568.178,173.403 C1558.182,166.935 1548.186,164.779 1538.190,164.779 zM1475.274,119.717 C1465.082,119.717 1459.790,125.969 1459.790,138.259 C1459.790,138.259 1459.790,145.158 1459.790,145.158 L1488.602,145.158 L1488.602,166.719 L1460.575,166.719 L1460.575,259.430 L1436.075,259.430 L1436.075,166.719 L1420.198,166.719 L1418.827,166.719 L1392.170,166.719 L1392.170,259.430 L1367.671,259.430 L1367.671,166.719 L1350.423,166.719 L1350.423,145.158 L1367.671,145.158 C1367.671,145.158 1367.671,137.828 1367.671,137.828 C1367.671,113.680 1380.803,97.940 1405.106,97.940 C1413.534,97.940 1421.766,99.881 1427.254,104.193 C1427.254,104.193 1420.394,124.460 1420.394,124.460 C1416.670,121.657 1411.966,119.717 1406.870,119.717 C1396.678,119.717 1391.386,125.969 1391.386,138.259 C1391.386,138.259 1391.386,145.158 1391.386,145.158 L1418.827,145.158 L1420.198,145.158 L1436.075,145.158 C1436.075,145.158 1436.075,137.828 1436.075,137.828 C1436.075,113.680 1449.207,97.940 1473.510,97.940 C1481.938,97.940 1490.170,99.881 1495.658,104.193 C1495.658,104.193 1488.798,124.460 1488.798,124.460 C1485.074,121.657 1480.370,119.717 1475.274,119.717 zM1323.963,125.323 C1314.947,125.323 1308.283,118.207 1308.283,109.152 C1308.283,100.097 1314.947,92.982 1323.963,92.982 C1332.978,92.982 1339.642,99.665 1339.642,108.505 C1339.642,117.992 1333.174,125.323 1323.963,125.323 zM1215.966,259.430 C1215.966,259.430 1155.991,259.430 1155.991,259.430 L1155.991,108.505 C1155.991,108.505 1215.966,108.505 1215.966,108.505 C1260.458,108.505 1290.838,138.690 1290.838,183.968 C1290.838,229.245 1260.458,259.430 1215.966,259.430 zM1214.790,132.222 C1214.790,132.222 1181.470,132.222 1181.470,132.222 L1181.470,235.713 C1181.470,235.713 1214.790,235.713 1214.790,235.713 C1245.366,235.713 1265.162,215.230 1265.162,183.968 C1265.162,152.705 1245.366,132.222 1214.790,132.222 zM1063.674,260.939 C1040.743,260.939 1027.611,247.572 1027.611,222.130 C1027.611,222.130 1027.611,166.719 1027.611,166.719 L1010.363,166.719 L1010.363,145.158 L1027.611,145.158 L1027.611,118.854 L1052.111,118.854 L1052.111,145.158 L1080.138,145.158 L1080.138,166.719 L1052.111,166.719 C1052.111,166.719 1052.111,221.483 1052.111,221.483 C1052.111,232.695 1057.206,238.732 1066.614,238.732 C1071.710,238.732 1076.610,237.222 1080.334,233.988 C1080.334,233.988 1087.194,253.177 1087.194,253.177 C1081.314,258.352 1072.494,260.939 1063.674,260.939 zM972.534,196.904 C972.534,176.421 963.322,166.503 947.642,166.503 C930.198,166.503 918.439,178.146 918.439,201.216 C918.439,201.216 918.439,259.430 918.439,259.430 L893.939,259.430 L893.939,144.296 L917.262,144.296 C917.262,144.296 917.262,159.173 917.262,159.173 C925.299,148.608 938.038,143.002 953.326,143.002 C978.414,143.002 997.034,158.742 997.034,193.454 C997.034,193.454 997.034,259.430 997.034,259.430 L972.534,259.430 C972.534,259.430 972.534,196.904 972.534,196.904 zM843.370,245.415 C837.490,255.333 826.122,260.939 810.442,260.939 C786.531,260.939 771.439,246.493 771.439,226.442 C771.439,207.253 783.199,192.161 814.950,192.161 C814.950,192.161 841.998,192.161 841.998,192.161 C841.998,192.161 841.998,190.436 841.998,190.436 C841.998,174.696 833.374,165.425 815.930,165.425 C804.170,165.425 792.019,169.737 784.179,176.853 C784.179,176.853 774.575,157.232 774.575,157.232 C785.747,147.746 802.014,143.002 818.870,143.002 C849.054,143.002 866.498,158.742 866.498,191.945 C866.498,191.945 866.498,259.430 866.498,259.430 L843.370,259.430 C843.370,259.430 843.370,245.415 843.370,245.415 zM841.998,210.056 C841.998,210.056 816.714,210.056 816.714,210.056 C800.054,210.056 795.546,216.955 795.546,225.364 C795.546,235.066 802.994,241.319 815.538,241.319 C827.494,241.319 837.882,235.282 841.998,223.424 C841.998,223.424 841.998,210.056 841.998,210.056 zM739.098,260.939 C716.167,260.939 703.035,247.572 703.035,222.130 C703.035,222.130 703.035,166.719 703.035,166.719 L685.787,166.719 L685.787,145.158 L703.035,145.158 L703.035,118.854 L727.534,118.854 L727.534,145.158 L755.562,145.158 L755.562,166.719 L727.534,166.719 C727.534,166.719 727.534,221.483 727.534,221.483 C727.534,232.695 732.630,238.732 742.038,238.732 C747.134,238.732 752.034,237.222 755.758,233.988 C755.758,233.988 762.618,253.177 762.618,253.177 C756.738,258.352 747.918,260.939 739.098,260.939 zM635.022,260.939 C617.579,260.939 600.135,255.333 590.727,248.003 C590.727,248.003 600.135,227.520 600.135,227.520 C609.347,234.204 623.459,238.947 636.590,238.947 C652.074,238.947 658.542,234.204 658.542,226.226 C658.542,204.235 593.863,224.933 593.863,179.009 C593.863,157.232 611.699,143.002 639.922,143.002 C653.838,143.002 669.714,146.668 679.122,152.920 C679.122,152.920 669.714,173.403 669.714,173.403 C659.718,166.935 649.722,164.779 639.726,164.779 C624.830,164.779 617.775,170.169 617.775,177.715 C617.775,201.000 682.454,180.302 682.454,225.364 C682.454,246.925 664.422,260.939 635.022,260.939 zM550.938,196.904 C550.938,176.421 541.726,166.503 526.046,166.503 C508.602,166.503 496.842,178.146 496.842,201.216 C496.842,201.216 496.842,259.430 496.842,259.430 L472.343,259.430 L472.343,144.296 L495.666,144.296 C495.666,144.296 495.666,159.173 495.666,159.173 C503.702,148.608 516.442,143.002 531.730,143.002 C556.818,143.002 575.438,158.742 575.438,193.454 C575.438,193.454 575.438,259.430 575.438,259.430 L550.938,259.430 C550.938,259.430 550.938,196.904 550.938,196.904 zM416.091,108.505 L441.570,108.505 L441.570,259.430 L416.091,259.430 L416.091,108.505 zM1336.114,259.430 L1311.615,259.430 L1311.615,144.296 L1336.114,144.296 L1336.114,259.430 z" fill="#ffffff" />
</svg>
