<svg version="1.1" xmlns="http://www.w3.org/2000/svg" xmlns:xlink="http://www.w3.org/1999/xlink" width="368" height="368" viewBox="0 0 368 368">
	<path id="top" d="M101.976,77.348 C101.976,77.348 175.515,3.809 175.515,3.809 C180.201,-0.877 187.799,-0.877 192.485,3.809 C192.485,3.809 266.024,77.348 266.024,77.348 C270.711,82.034 270.711,89.632 266.024,94.319 C266.024,94.319 192.485,167.858 192.485,167.858 C187.799,172.544 180.201,172.544 175.515,167.858 C175.515,167.858 101.976,94.319 101.976,94.319 C97.289,89.632 97.289,82.034 101.976,77.348 z" fill="#000000" />
	<path id="right" d="M200.142,175.515 C200.142,175.515 273.681,101.976 273.681,101.976 C278.368,97.289 285.966,97.289 290.652,101.976 C290.652,101.976 364.191,175.515 364.191,175.515 C368.877,180.201 368.877,187.799 364.191,192.485 C364.191,192.485 290.652,266.024 290.652,266.024 C285.966,270.711 278.368,270.711 273.681,266.024 C273.681,266.024 200.142,192.485 200.142,192.485 C195.456,187.799 195.456,180.201 200.142,175.515 z" fill="#000000" />
	<path id="bottom" d="M101.976,273.681 C101.976,273.681 175.515,200.142 175.515,200.142 C180.201,195.456 187.799,195.456 192.485,200.142 C192.485,200.142 266.024,273.681 266.024,273.681 C270.711,278.368 270.711,285.966 266.024,290.652 C266.024,290.652 192.485,364.191 192.485,364.191 C187.799,368.877 180.201,368.877 175.515,364.191 C175.515,364.191 101.976,290.652 101.976,290.652 C97.289,285.966 97.289,278.368 101.976,273.681 z" fill="#000000" />
	<path id="left" d="M3.809,175.515 C3.809,175.515 77.348,101.976 77.348,101.976 C82.034,97.289 89.632,97.289 94.319,101.976 C94.319,101.976 167.858,175.515 167.858,175.515 C172.544,180.201 172.544,187.799 167.858,192.485 C167.858,192.485 94.319,266.024 94.319,266.024 C89.632,270.711 82.034,270.711 77.348,266.024 C77.348,266.024 3.809,192.485 3.809,192.485 C-0.877,187.799 -0.877,180.201 3.809,175.515 z" fill="#000000" />
</svg>
